<?xml version="1.0" standalone="no"?>
<!DOCTYPE svg PUBLIC "-//W3C//DTD SVG 20010904//EN"
 "http://www.w3.org/TR/2001/REC-SVG-20010904/DTD/svg10.dtd">
<svg version="1.0" xmlns="http://www.w3.org/2000/svg"
 width="2000.000000pt" height="2000.000000pt" viewBox="0 0 2000.000000 2000.000000"
 preserveAspectRatio="xMidYMid meet">
<metadata>
Created by potrace 1.14, written by Peter Selinger 2001-2017
</metadata>
<g transform="translate(0.000000,2000.000000) scale(0.100000,-0.100000)"
fill="#000000" stroke="none">
<path d="M9689 17376 c-2 -2 -47 -7 -99 -10 -52 -3 -138 -9 -190 -12 -121 -7
-116 -7 -235 -44 -55 -18 -127 -40 -160 -50 -33 -10 -116 -36 -185 -59 -69
-22 -138 -45 -155 -50 -16 -5 -118 -37 -225 -71 -107 -33 -212 -68 -233 -75
-20 -8 -39 -15 -42 -15 -3 1 -92 -27 -198 -60 -105 -34 -271 -86 -367 -117
-96 -30 -195 -62 -220 -70 -25 -8 -49 -16 -55 -17 -5 -1 -46 -14 -90 -28 -110
-37 -438 -141 -450 -144 -5 -1 -68 -21 -140 -44 -71 -23 -209 -66 -305 -97
-163 -52 -337 -107 -590 -188 -58 -18 -179 -57 -270 -85 -91 -28 -176 -55
-190 -60 -14 -5 -126 -41 -250 -80 -346 -109 -600 -190 -655 -208 -27 -9 -54
-17 -60 -18 -5 -1 -50 -16 -100 -32 -49 -17 -151 -49 -225 -72 -74 -23 -155
-49 -180 -57 -52 -17 -662 -211 -795 -253 -83 -26 -382 -121 -650 -207 -60
-19 -137 -43 -170 -53 -33 -10 -87 -27 -120 -38 -119 -39 -290 -94 -305 -97
-8 -2 -42 -12 -75 -23 -33 -11 -118 -39 -190 -61 -71 -23 -164 -52 -205 -65
-41 -14 -163 -52 -270 -86 -107 -34 -226 -72 -265 -85 -38 -12 -137 -44 -220
-69 -82 -26 -161 -51 -175 -56 -14 -5 -105 -34 -202 -65 -199 -63 -187 -50
-131 -147 18 -31 33 -60 33 -65 0 -4 8 -18 18 -30 16 -20 29 -22 172 -28 85
-4 198 -8 250 -11 52 -2 158 -6 235 -9 183 -7 340 -13 500 -20 72 -4 177 -8
235 -10 164 -5 536 -21 565 -24 7 -1 10 -647 10 -1925 l0 -1923 -37 -41 c-45
-50 -62 -82 -78 -150 -20 -85 -2 -191 43 -256 22 -31 23 -55 8 -142 -12 -66
-17 -100 -26 -158 -4 -21 -9 -48 -11 -60 -5 -26 -5 -27 -54 -331 -23 -137 -43
-266 -46 -285 -3 -19 -11 -71 -19 -115 -8 -44 -17 -96 -19 -115 -3 -19 -8 -46
-10 -60 -2 -14 -8 -47 -12 -75 -4 -27 -9 -57 -10 -65 -2 -8 -6 -35 -9 -60 -3
-25 -8 -52 -10 -60 -2 -8 -6 -33 -10 -55 -3 -22 -14 -92 -25 -155 -11 -63 -22
-133 -25 -155 -4 -22 -8 -47 -11 -56 -2 -9 -7 -34 -9 -55 -10 -76 -16 -119
-20 -134 -2 -8 -7 -33 -10 -55 -3 -23 -8 -52 -10 -65 -3 -14 -7 -38 -9 -55 -3
-16 -7 -43 -10 -60 -3 -16 -10 -61 -16 -100 -15 -94 -17 -106 -34 -210 -9 -49
-18 -108 -21 -130 -3 -22 -8 -51 -11 -63 -3 -13 -7 -43 -10 -65 -3 -23 -17
-82 -31 -132 -23 -83 -37 -137 -48 -175 -2 -8 -13 -44 -25 -80 -26 -82 -94
-293 -95 -300 -1 -3 -9 -30 -19 -60 l-18 -55 36 -119 c36 -117 42 -134 50
-125 6 7 106 151 136 198 l29 44 22 -49 c26 -59 71 -167 105 -249 13 -33 37
-74 51 -90 15 -16 44 -48 65 -72 35 -41 38 -42 43 -21 2 13 14 64 25 113 11
50 22 101 24 115 3 14 17 77 31 140 15 63 29 129 32 145 3 17 6 31 8 33 2 2
27 -95 41 -163 1 -5 7 -28 13 -50 6 -22 11 -43 11 -47 1 -4 10 -38 21 -75 11
-38 21 -77 23 -88 2 -11 7 -32 11 -47 l7 -28 129 0 129 0 1 53 c1 28 3 61 4
72 2 11 6 65 9 120 4 55 9 116 11 135 2 19 7 77 10 128 4 51 8 112 10 135 2
23 7 78 10 122 3 44 7 105 10 135 2 30 7 84 10 120 2 36 8 101 11 145 4 44 7
95 7 114 -1 67 17 5 62 -208 2 -9 24 -108 50 -221 26 -113 49 -216 52 -230 2
-14 17 -79 33 -145 29 -125 61 -271 61 -280 0 -2 5 -19 10 -37 5 -18 12 -47
14 -63 3 -17 9 -44 13 -60 l8 -30 105 -3 104 -3 2 53 c0 29 4 132 8 228 11
277 12 310 3 310 -4 0 -7 3 -6 8 1 4 -2 23 -5 42 -10 56 -28 191 -57 450 -12
107 -17 147 -24 205 -3 22 -7 67 -11 100 -3 33 -7 76 -10 95 -3 19 -7 60 -10
90 -2 30 -7 73 -9 95 -3 22 -7 69 -11 105 -3 36 -8 76 -10 90 -3 14 -7 56 -10
95 -3 38 -7 81 -10 95 -2 14 -6 57 -10 95 -3 39 -8 86 -10 105 -2 19 -6 62
-10 95 -3 33 -7 76 -10 95 -2 19 -7 67 -10 105 -3 39 -8 81 -10 95 -2 14 -7
61 -10 105 -3 44 -7 87 -10 95 -2 8 -7 55 -10 104 -4 50 -8 97 -10 105 -2 9
-6 52 -10 96 -3 44 -8 91 -10 105 -2 14 -6 57 -10 95 -3 39 -8 88 -10 110 -3
22 -7 67 -11 100 -3 33 -7 78 -9 100 -2 22 -7 67 -10 100 -2 33 -7 89 -11 125
-3 36 -7 76 -9 90 -2 14 -7 59 -10 100 -4 41 -11 80 -16 87 -7 7 -6 14 0 18
29 17 51 173 36 249 -10 50 -53 123 -97 165 l-43 40 1 1893 c1 1041 2 1901 3
1910 1 13 9 16 34 13 17 -2 106 -7 197 -10 91 -3 210 -7 265 -10 143 -6 382
-15 510 -20 61 -3 171 -7 245 -10 74 -3 187 -8 250 -10 63 -3 169 -7 235 -10
303 -12 510 -21 740 -29 88 -4 207 -8 265 -11 103 -5 197 -9 490 -20 80 -4
190 -8 245 -10 55 -3 165 -7 244 -10 80 -3 145 -6 147 -8 2 -2 -8 -18 -156
-247 -45 -69 -109 -168 -142 -220 -34 -52 -85 -131 -113 -175 -274 -422 -513
-795 -509 -795 2 0 -4 -8 -14 -19 -9 -10 -42 -58 -72 -106 -30 -49 -65 -104
-77 -122 -13 -19 -23 -38 -23 -43 0 -4 -3 -10 -8 -12 -10 -4 -172 -256 -172
-267 0 -5 -4 -11 -8 -13 -5 -1 -39 -50 -75 -108 -37 -58 -72 -112 -77 -120 -6
-8 -44 -67 -84 -130 -41 -63 -116 -179 -166 -258 -85 -131 -99 -163 -126 -272
-2 -8 -10 -42 -18 -75 -8 -33 -17 -77 -20 -99 -4 -21 -8 -41 -10 -45 -2 -3 -7
-31 -10 -61 -3 -30 -8 -66 -11 -80 -20 -98 -28 -565 -12 -725 17 -174 35 -294
57 -395 6 -25 13 -56 16 -70 26 -116 53 -206 100 -340 20 -58 40 -109 45 -114
5 -6 9 -16 9 -23 0 -18 92 -210 151 -317 52 -92 146 -239 183 -287 12 -15 30
-39 41 -54 73 -102 151 -191 290 -330 184 -185 269 -256 443 -369 157 -103
283 -168 441 -230 92 -37 295 -99 356 -109 17 -3 53 -10 82 -16 29 -6 74 -13
100 -16 26 -4 59 -8 71 -10 91 -15 562 -18 3190 -19 l2957 -1 1 -1375 c0 -756
-2 -1380 -4 -1386 -2 -9 -218 -12 -823 -12 -757 0 -819 1 -820 16 0 10 -1 446
-1 970 0 523 -3 953 -7 953 -3 1 -1564 2 -3468 3 -3071 1 -3462 -1 -3466 -14
-18 -77 -13 -668 7 -776 2 -10 7 -46 10 -79 4 -33 9 -71 11 -85 9 -60 18 -116
22 -135 2 -11 8 -45 13 -75 6 -30 24 -109 40 -175 17 -66 33 -129 35 -140 28
-124 175 -496 276 -698 261 -522 658 -1028 969 -1235 169 -112 496 -238 719
-277 19 -3 37 -7 40 -9 3 -2 24 -7 46 -10 22 -4 47 -8 55 -11 8 -2 38 -7 65
-10 28 -4 59 -9 70 -10 71 -10 106 -15 153 -20 28 -3 75 -8 102 -11 28 -3 83
-8 123 -11 136 -12 7717 -14 7792 -2 261 39 581 166 823 327 91 60 154 104
162 112 3 3 39 32 80 64 170 135 512 461 596 568 21 28 44 55 49 62 39 42 120
186 173 306 63 141 169 513 187 654 3 27 8 52 9 55 2 3 7 29 10 56 8 58 16
110 21 143 2 13 7 53 11 90 3 37 8 75 10 85 1 9 6 63 10 120 3 56 8 109 9 119
7 32 18 397 18 573 1 164 -8 376 -18 436 -2 13 -7 47 -10 74 -4 28 -9 64 -11
82 -4 32 -41 215 -49 245 -7 24 -15 59 -20 83 -12 53 -80 249 -122 349 -151
359 -351 653 -643 947 -243 244 -476 417 -733 542 -184 91 -420 178 -541 201
-12 2 -68 13 -126 25 -101 20 -121 23 -240 37 -104 12 -230 13 -1692 13
l-1468 1 0 1125 0 1125 48 1 c59 1 1450 1 1477 0 20 -1 20 -7 20 -711 l0 -710
2042 0 2043 0 1 28 c0 15 2 34 4 42 1 8 6 53 9 100 4 47 9 105 11 130 3 25 7
68 9 95 3 28 8 84 13 125 12 126 6 414 -12 525 -3 17 -7 48 -10 70 -11 91 -17
126 -41 244 -15 69 -32 141 -39 162 -8 20 -12 39 -10 41 3 3 -92 291 -120 363
-125 322 -334 681 -529 910 -66 78 -174 186 -258 258 -63 55 -143 135 -325
324 -43 44 -184 190 -313 323 -129 134 -270 279 -314 324 -219 227 -557 576
-683 705 -241 248 -303 314 -303 321 0 5 65 26 115 36 22 4 648 180 705 197
19 6 40 12 45 13 11 2 390 106 470 129 155 45 232 67 247 70 19 4 756 208 833
230 58 17 483 135 505 140 8 2 47 13 85 24 79 22 798 221 890 246 33 9 83 22
110 30 178 49 559 154 715 196 102 27 208 56 235 64 60 18 270 75 294 80 9 2
68 18 131 35 63 18 122 34 130 36 8 2 33 8 55 14 22 6 48 13 58 15 10 2 27 7
37 10 23 7 57 15 95 21 54 9 95 86 95 177 0 41 -5 43 -90 46 -36 2 -81 4 -100
6 -19 2 -84 7 -145 10 -60 4 -130 8 -155 10 -25 1 -90 6 -145 9 -55 3 -127 8
-160 11 -33 2 -109 7 -170 10 -60 4 -130 8 -155 10 -25 3 -90 7 -145 10 -55 3
-129 7 -165 10 -36 2 -110 7 -165 10 -55 4 -116 8 -135 10 -19 2 -93 7 -165
10 -71 4 -137 9 -147 10 -9 2 -76 7 -150 10 -73 4 -149 8 -168 10 -19 2 -82 6
-140 10 -58 3 -130 8 -160 10 -30 2 -93 7 -140 10 -47 3 -121 7 -165 10 -44 3
-116 7 -160 10 -44 2 -111 7 -150 10 -38 2 -115 7 -170 10 -55 3 -120 8 -145
10 -43 4 -187 13 -319 20 -35 2 -94 6 -130 9 -36 3 -113 8 -171 11 -58 3 -127
8 -155 10 -27 2 -95 7 -150 10 -96 5 -179 11 -310 20 -65 5 -177 12 -320 20
-49 3 -112 8 -140 10 -27 2 -97 7 -155 10 -58 3 -132 7 -165 10 -63 5 -161 11
-310 20 -49 3 -123 8 -164 11 -41 3 -107 7 -145 9 -186 11 -246 15 -301 20
-33 2 -105 7 -160 10 -158 9 -245 15 -310 20 -33 2 -105 7 -160 10 -55 3 -127
8 -160 10 -85 6 -196 14 -300 20 -49 3 -121 8 -160 10 -155 11 -224 15 -310
20 -49 2 -117 7 -150 10 -33 3 -103 7 -155 10 -94 5 -157 9 -295 20 -38 3
-113 7 -165 10 -52 2 -126 7 -165 9 -38 3 -110 8 -160 11 -49 3 -117 7 -150
10 -63 4 -193 13 -310 20 -38 2 -110 7 -160 11 -208 15 -509 27 -516 20z"/>
</g>
</svg>
